<svg width="18" height="20" viewBox="0 0 18 20" fill="none" xmlns="http://www.w3.org/2000/svg">
<path d="M2.58333 19.1666C2.07917 19.1666 1.64757 18.9871 1.28854 18.628C0.929514 18.269 0.75 17.8374 0.75 17.3333V4.49992C0.75 3.99575 0.929514 3.56415 1.28854 3.20513C1.64757 2.8461 2.07917 2.66659 2.58333 2.66659H3.5V1.74992C3.5 1.4902 3.58785 1.27249 3.76354 1.09679C3.93924 0.921099 4.15694 0.833252 4.41667 0.833252C4.67639 0.833252 4.8941 0.921099 5.06979 1.09679C5.24549 1.27249 5.33333 1.4902 5.33333 1.74992V2.66659H12.6667V1.74992C12.6667 1.4902 12.7545 1.27249 12.9302 1.09679C13.1059 0.921099 13.3236 0.833252 13.5833 0.833252C13.8431 0.833252 14.0608 0.921099 14.2365 1.09679C14.4122 1.27249 14.5 1.4902 14.5 1.74992V2.66659H15.4167C15.9208 2.66659 16.3524 2.8461 16.7115 3.20513C17.0705 3.56415 17.25 3.99575 17.25 4.49992V17.3333C17.25 17.8374 17.0705 18.269 16.7115 18.628C16.3524 18.9871 15.9208 19.1666 15.4167 19.1666H2.58333ZM2.58333 17.3333H15.4167V8.16658H2.58333V17.3333ZM2.58333 6.33325H15.4167V4.49992H2.58333V6.33325ZM9 11.8333C8.74028 11.8333 8.52257 11.7454 8.34688 11.5697C8.17118 11.394 8.08333 11.1763 8.08333 10.9166C8.08333 10.6569 8.17118 10.4392 8.34688 10.2635C8.52257 10.0878 8.74028 9.99992 9 9.99992C9.25972 9.99992 9.47743 10.0878 9.65313 10.2635C9.82882 10.4392 9.91667 10.6569 9.91667 10.9166C9.91667 11.1763 9.82882 11.394 9.65313 11.5697C9.47743 11.7454 9.25972 11.8333 9 11.8333ZM5.33333 11.8333C5.07361 11.8333 4.8559 11.7454 4.68021 11.5697C4.50451 11.394 4.41667 11.1763 4.41667 10.9166C4.41667 10.6569 4.50451 10.4392 4.68021 10.2635C4.8559 10.0878 5.07361 9.99992 5.33333 9.99992C5.59306 9.99992 5.81076 10.0878 5.98646 10.2635C6.16215 10.4392 6.25 10.6569 6.25 10.9166C6.25 11.1763 6.16215 11.394 5.98646 11.5697C5.81076 11.7454 5.59306 11.8333 5.33333 11.8333ZM12.6667 11.8333C12.4069 11.8333 12.1892 11.7454 12.0135 11.5697C11.8378 11.394 11.75 11.1763 11.75 10.9166C11.75 10.6569 11.8378 10.4392 12.0135 10.2635C12.1892 10.0878 12.4069 9.99992 12.6667 9.99992C12.9264 9.99992 13.1441 10.0878 13.3198 10.2635C13.4955 10.4392 13.5833 10.6569 13.5833 10.9166C13.5833 11.1763 13.4955 11.394 13.3198 11.5697C13.1441 11.7454 12.9264 11.8333 12.6667 11.8333ZM9 15.4999C8.74028 15.4999 8.52257 15.4121 8.34688 15.2364C8.17118 15.0607 8.08333 14.843 8.08333 14.5833C8.08333 14.3235 8.17118 14.1058 8.34688 13.9301C8.52257 13.7544 8.74028 13.6666 9 13.6666C9.25972 13.6666 9.47743 13.7544 9.65313 13.9301C9.82882 14.1058 9.91667 14.3235 9.91667 14.5833C9.91667 14.843 9.82882 15.0607 9.65313 15.2364C9.47743 15.4121 9.25972 15.4999 9 15.4999ZM5.33333 15.4999C5.07361 15.4999 4.8559 15.4121 4.68021 15.2364C4.50451 15.0607 4.41667 14.843 4.41667 14.5833C4.41667 14.3235 4.50451 14.1058 4.68021 13.9301C4.8559 13.7544 5.07361 13.6666 5.33333 13.6666C5.59306 13.6666 5.81076 13.7544 5.98646 13.9301C6.16215 14.1058 6.25 14.3235 6.25 14.5833C6.25 14.843 6.16215 15.0607 5.98646 15.2364C5.81076 15.4121 5.59306 15.4999 5.33333 15.4999ZM12.6667 15.4999C12.4069 15.4999 12.1892 15.4121 12.0135 15.2364C11.8378 15.0607 11.75 14.843 11.75 14.5833C11.75 14.3235 11.8378 14.1058 12.0135 13.9301C12.1892 13.7544 12.4069 13.6666 12.6667 13.6666C12.9264 13.6666 13.1441 13.7544 13.3198 13.9301C13.4955 14.1058 13.5833 14.3235 13.5833 14.5833C13.5833 14.843 13.4955 15.0607 13.3198 15.2364C13.1441 15.4121 12.9264 15.4999 12.6667 15.4999Z" fill="black"/>
</svg>
