<svg width="44" height="45" viewBox="0 0 44 45" fill="none" xmlns="http://www.w3.org/2000/svg">
<rect y="0.842285" width="44" height="44" rx="22" fill="#4F9AD1"/>
<mask id="mask0_653_12375" style="mask-type:alpha" maskUnits="userSpaceOnUse" x="12" y="12" width="20" height="21">
<rect x="12" y="12.8423" width="20" height="20" fill="#D9D9D9"/>
</mask>
<g mask="url(#mask0_653_12375)">
<path d="M14.4997 30.3424C14.0413 30.3424 13.649 30.1793 13.3226 29.8529C12.9962 29.5265 12.833 29.1341 12.833 28.6758V18.6758C12.833 18.2174 12.9962 17.8251 13.3226 17.4987C13.649 17.1723 14.0413 17.0091 14.4997 17.0091H17.1247L18.6663 15.3424H23.6663V17.0091H19.3955L17.8747 18.6758H14.4997V28.6758H27.833V21.1758H29.4997V28.6758C29.4997 29.1341 29.3365 29.5265 29.0101 29.8529C28.6837 30.1793 28.2913 30.3424 27.833 30.3424H14.4997ZM27.833 18.6758V17.0091H26.1663V15.3424H27.833V13.6758H29.4997V15.3424H31.1663V17.0091H29.4997V18.6758H27.833ZM21.1663 27.4258C22.208 27.4258 23.0934 27.0612 23.8226 26.332C24.5518 25.6029 24.9163 24.7174 24.9163 23.6758C24.9163 22.6341 24.5518 21.7487 23.8226 21.0195C23.0934 20.2904 22.208 19.9258 21.1663 19.9258C20.1247 19.9258 19.2393 20.2904 18.5101 21.0195C17.7809 21.7487 17.4163 22.6341 17.4163 23.6758C17.4163 24.7174 17.7809 25.6029 18.5101 26.332C19.2393 27.0612 20.1247 27.4258 21.1663 27.4258ZM21.1663 25.7591C20.583 25.7591 20.09 25.5577 19.6872 25.1549C19.2844 24.7522 19.083 24.2591 19.083 23.6758C19.083 23.0924 19.2844 22.5994 19.6872 22.1966C20.09 21.7938 20.583 21.5924 21.1663 21.5924C21.7497 21.5924 22.2427 21.7938 22.6455 22.1966C23.0483 22.5994 23.2497 23.0924 23.2497 23.6758C23.2497 24.2591 23.0483 24.7522 22.6455 25.1549C22.2427 25.5577 21.7497 25.7591 21.1663 25.7591Z" fill="white"/>
</g>
</svg>
