<svg width="37" height="37" viewBox="0 0 37 37" fill="none" xmlns="http://www.w3.org/2000/svg">
<rect x="0.291016" y="0.336426" width="36.64" height="36.64" rx="18.32" fill="#4F9AD1"/>
<path d="M17.9507 10.916C19.5455 10.916 20.8719 11.1124 21.9298 11.5051C22.9877 11.8897 23.7811 12.4668 24.3101 13.2362C24.847 14.0055 25.1155 14.9632 25.1155 16.1093C25.1155 16.8226 24.9953 17.4717 24.7549 18.0568C24.5144 18.6418 24.1698 19.1668 23.721 19.6316C23.2802 20.0884 22.7513 20.4891 22.1342 20.8337L27.2553 28.4915H21.8697L18.143 22.096H16.9409V28.4915H12.1924V10.916H17.9507ZM17.8785 14.5104H16.9409V18.5256H17.8305C18.5598 18.5256 19.1568 18.3653 19.6217 18.0448C20.0865 17.7242 20.3189 17.1512 20.3189 16.3257C20.3189 15.7567 20.1266 15.3119 19.7419 14.9913C19.3572 14.6707 18.7361 14.5104 17.8785 14.5104Z" fill="white"/>
</svg>
