<svg width="21" height="21" viewBox="0 0 21 21" fill="none" xmlns="http://www.w3.org/2000/svg">
<path d="M1.33301 12.8337C1.33301 10.8933 2.35325 9.19124 3.88656 8.23466C4.30358 4.95366 7.10539 2.41699 10.4997 2.41699C13.8939 2.41699 16.6958 4.95366 17.1128 8.23466C18.6461 9.19124 19.6663 10.8933 19.6663 12.8337C19.6663 15.685 17.4632 18.0217 14.6663 18.2346L6.33301 18.2503C3.53616 18.0217 1.33301 15.685 1.33301 12.8337ZM14.5399 16.5727C16.4844 16.4247 17.9997 14.7971 17.9997 12.8337C17.9997 11.5228 17.3233 10.3305 16.2306 9.64874L15.5592 9.22983L15.4594 8.44481C15.1443 5.96535 13.0237 4.08366 10.4997 4.08366C7.97564 4.08366 5.85507 5.96535 5.53992 8.44481L5.44014 9.22983L4.76874 9.64874C3.67597 10.3305 2.99967 11.5228 2.99967 12.8337C2.99967 14.7971 4.51495 16.4247 6.45942 16.5727L6.60384 16.5837H14.3955L14.5399 16.5727ZM11.333 10.7503H13.833L10.4997 14.917L7.16634 10.7503H9.66634V7.41699H11.333V10.7503Z" fill="#374151"/>
</svg>
