<svg width="22" height="22" viewBox="0 0 22 22" fill="none" xmlns="http://www.w3.org/2000/svg">
<mask id="mask0_1158_1018" style="mask-type:alpha" maskUnits="userSpaceOnUse" x="0" y="0" width="22" height="22">
<rect width="22" height="22" fill="black"/>
</mask>
<g mask="url(#mask0_1158_1018)">
<path d="M4.58333 19.25C4.07917 19.25 3.64757 19.0705 3.28854 18.7115C2.92951 18.3524 2.75 17.9208 2.75 17.4167V4.58333C2.75 4.07917 2.92951 3.64757 3.28854 3.28854C3.64757 2.92951 4.07917 2.75 4.58333 2.75H10.0833C10.3431 2.75 10.5608 2.83785 10.7365 3.01354C10.9122 3.18924 11 3.40694 11 3.66667C11 3.92639 10.9122 4.1441 10.7365 4.31979C10.5608 4.49549 10.3431 4.58333 10.0833 4.58333H4.58333V17.4167H10.0833C10.3431 17.4167 10.5608 17.5045 10.7365 17.6802C10.9122 17.8559 11 18.0736 11 18.3333C11 18.5931 10.9122 18.8108 10.7365 18.9865C10.5608 19.1622 10.3431 19.25 10.0833 19.25H4.58333ZM15.7437 11.9167H9.16667C8.90694 11.9167 8.68924 11.8288 8.51354 11.6531C8.33785 11.4774 8.25 11.2597 8.25 11C8.25 10.7403 8.33785 10.5226 8.51354 10.3469C8.68924 10.1712 8.90694 10.0833 9.16667 10.0833H15.7437L14.025 8.36458C13.8569 8.19653 13.7729 7.99028 13.7729 7.74583C13.7729 7.50139 13.8569 7.2875 14.025 7.10417C14.1931 6.92083 14.4069 6.82535 14.6667 6.81771C14.9264 6.81007 15.1479 6.89792 15.3313 7.08125L18.6083 10.3583C18.7917 10.5417 18.8833 10.7556 18.8833 11C18.8833 11.2444 18.7917 11.4583 18.6083 11.6417L15.3313 14.9188C15.1479 15.1021 14.9302 15.1899 14.6781 15.1823C14.426 15.1747 14.2083 15.0792 14.025 14.8958C13.8569 14.7125 13.7767 14.4948 13.7844 14.2427C13.792 13.9906 13.8799 13.7806 14.0479 13.6125L15.7437 11.9167Z" fill="black"/>
</g>
</svg>
