<svg width="19" height="19" viewBox="0 0 19 19" fill="none" xmlns="http://www.w3.org/2000/svg">
<g clip-path="url(#clip0_1031_10500)">
<path d="M11.7894 0.143066H3.64427C2.10217 0.143066 0.847656 1.39758 0.847656 2.93968V11.0848C0.847656 12.6269 2.10217 13.8814 3.64427 13.8814H11.7894C13.3315 13.8814 14.586 12.6269 14.586 11.0848V2.93968C14.586 1.39758 13.3315 0.143066 11.7894 0.143066ZM13.1877 11.0848C13.1877 11.8558 12.5604 12.4831 11.7894 12.4831H3.64427C2.87329 12.4831 2.24596 11.8558 2.24596 11.0848V2.93968C2.24596 2.1687 2.87329 1.54137 3.64427 1.54137H11.7894C12.5604 1.54137 13.1877 2.1687 13.1877 2.93968V11.0848ZM11.7544 6.88989V8.98735C11.7544 10.144 10.8136 11.0848 9.65698 11.0848H7.55952C7.17335 11.0848 6.86037 10.7718 6.86037 10.3857C6.86037 9.99948 7.17335 9.6865 7.55952 9.6865H9.36735L6.87279 7.19194C6.59982 6.91897 6.59982 6.47627 6.87279 6.2033C7.1459 5.93019 7.58861 5.93019 7.86158 6.2033L10.3561 8.69772V6.88989C10.3561 6.50372 10.6691 6.19074 11.0553 6.19074C11.4415 6.19074 11.7544 6.50372 11.7544 6.88989ZM18.746 10.3857C18.746 10.7718 18.433 11.0848 18.0468 11.0848C17.6606 11.0848 17.3477 10.7718 17.3477 10.3857C17.3477 9.99948 17.6606 9.6865 18.0468 9.6865C18.433 9.6865 18.746 9.99948 18.746 10.3857ZM15.9494 6.19074C15.9494 5.80456 16.2623 5.49158 16.6485 5.49158C17.8051 5.49158 18.746 6.43244 18.746 7.58904C18.746 7.97521 18.433 8.28819 18.0468 8.28819C17.6606 8.28819 17.3477 7.97521 17.3477 7.58904C17.3477 7.20355 17.034 6.88989 16.6485 6.88989C16.2623 6.88989 15.9494 6.57691 15.9494 6.19074ZM11.7195 17.3422C11.7195 17.7284 11.4065 18.0414 11.0203 18.0414C10.6342 18.0414 10.3212 17.7284 10.3212 17.3422C10.3212 16.956 10.6342 16.6431 11.0203 16.6431C11.4065 16.6431 11.7195 16.956 11.7195 17.3422ZM8.85295 17.341C8.85295 17.7272 8.53997 18.0401 8.1538 18.0401C6.99719 18.0401 6.05634 17.0993 6.05634 15.9427C6.05634 15.5566 6.36932 15.2435 6.7555 15.2435C7.14167 15.2435 7.45465 15.5566 7.45465 15.9427C7.45465 16.3282 7.76831 16.6418 8.1538 16.6418C8.53997 16.6418 8.85295 16.955 8.85295 17.341ZM18.746 13.0774C18.746 13.4636 18.433 13.7765 18.0468 13.7765C17.6606 13.7765 17.3477 13.4636 17.3477 13.0774C17.3477 12.6912 17.6606 12.3782 18.0468 12.3782C18.433 12.3782 18.746 12.6912 18.746 13.0774ZM14.551 17.3422C14.551 17.7284 14.2381 18.0414 13.8519 18.0414C13.4657 18.0414 13.1527 17.7284 13.1527 17.3422C13.1527 16.956 13.4657 16.6431 13.8519 16.6431C14.2381 16.6431 14.551 16.956 14.551 17.3422ZM18.746 15.9439C18.746 17.1005 17.8051 18.0414 16.6485 18.0414C16.2623 18.0414 15.9494 17.7284 15.9494 17.3422C15.9494 16.956 16.2623 16.6431 16.6485 16.6431C17.034 16.6431 17.3477 16.3294 17.3477 15.9439C17.3477 15.5577 17.6606 15.2448 18.0468 15.2448C18.433 15.2448 18.746 15.5577 18.746 15.9439Z" fill="#717171"/>
</g>
<defs>
<clipPath id="clip0_1031_10500">
<rect width="17.8983" height="17.8983" fill="white" transform="translate(0.847656 0.143555)"/>
</clipPath>
</defs>
</svg>
