<svg width="22" height="22" viewBox="0 0 22 22" fill="none" xmlns="http://www.w3.org/2000/svg">
<mask id="mask0_1158_5408" style="mask-type:alpha" maskUnits="userSpaceOnUse" x="0" y="0" width="22" height="22">
<rect width="22" height="22" fill="#D9D9D9"/>
</mask>
<g mask="url(#mask0_1158_5408)">
<path d="M13.0851 15.8127C13.2531 15.6599 13.3448 15.4689 13.3601 15.2397C13.3754 15.0106 13.299 14.812 13.1309 14.6439L10.5872 11.9627L10.6101 11.8939H10.8393C11.6643 11.8939 12.3479 11.6418 12.8903 11.1377C13.4327 10.6335 13.765 10.0453 13.8872 9.37308H14.2768C14.4295 9.37308 14.5556 9.31961 14.6549 9.21266C14.7542 9.10572 14.8038 8.97586 14.8038 8.82308C14.8038 8.6703 14.7542 8.54426 14.6549 8.44495C14.5556 8.34565 14.4295 8.296 14.2768 8.296H13.8643C13.8184 8.06683 13.7382 7.84912 13.6236 7.64287C13.509 7.43662 13.3677 7.23419 13.1997 7.03558H14.2768C14.4295 7.03558 14.5556 6.98211 14.6549 6.87516C14.7542 6.76822 14.8038 6.63836 14.8038 6.48558C14.8038 6.3328 14.7542 6.20676 14.6549 6.10745C14.5556 6.00815 14.4295 5.9585 14.2768 5.9585H7.86009C7.67676 5.9585 7.52016 6.02343 7.3903 6.15329C7.26044 6.28315 7.19551 6.43975 7.19551 6.62308C7.19551 6.80641 7.26044 6.95919 7.3903 7.08141C7.52016 7.20363 7.67676 7.26475 7.86009 7.26475H10.7705C11.1677 7.26475 11.4924 7.36405 11.7445 7.56266C11.9965 7.76127 12.1684 8.00572 12.2601 8.296H7.72259C7.56981 8.296 7.44377 8.34947 7.34447 8.45641C7.24516 8.56336 7.19551 8.69322 7.19551 8.846C7.19551 8.99877 7.24516 9.12481 7.34447 9.22412C7.44377 9.32343 7.56981 9.37308 7.72259 9.37308H12.283C12.1913 9.67864 12.0156 9.94218 11.7559 10.1637C11.4962 10.3852 11.1448 10.496 10.7018 10.496H9.14342C8.94481 10.496 8.77294 10.5418 8.6278 10.6335C8.48266 10.7252 8.3719 10.855 8.29551 11.0231C8.21912 11.1911 8.1962 11.363 8.22676 11.5387C8.25731 11.7144 8.34134 11.8786 8.47884 12.0314L11.9163 15.7897C12.0691 15.9578 12.2601 16.0418 12.4893 16.0418C12.7184 16.0418 12.917 15.9654 13.0851 15.8127ZM10.9997 20.1668C9.73162 20.1668 8.53995 19.9262 7.42467 19.445C6.3094 18.9637 5.33926 18.3106 4.51426 17.4856C3.68926 16.6606 3.03613 15.6904 2.55488 14.5752C2.07363 13.4599 1.83301 12.2682 1.83301 11.0002C1.83301 9.73211 2.07363 8.54044 2.55488 7.42516C3.03613 6.30988 3.68926 5.33975 4.51426 4.51475C5.33926 3.68975 6.3094 3.03662 7.42467 2.55537C8.53995 2.07412 9.73162 1.8335 10.9997 1.8335C12.2677 1.8335 13.4594 2.07412 14.5747 2.55537C15.69 3.03662 16.6601 3.68975 17.4851 4.51475C18.3101 5.33975 18.9632 6.30988 19.4445 7.42516C19.9257 8.54044 20.1663 9.73211 20.1663 11.0002C20.1663 12.2682 19.9257 13.4599 19.4445 14.5752C18.9632 15.6904 18.3101 16.6606 17.4851 17.4856C16.6601 18.3106 15.69 18.9637 14.5747 19.445C13.4594 19.9262 12.2677 20.1668 10.9997 20.1668ZM10.9997 18.3335C13.0469 18.3335 14.7809 17.6231 16.2018 16.2022C17.6226 14.7814 18.333 13.0474 18.333 11.0002C18.333 8.95294 17.6226 7.21891 16.2018 5.79808C14.7809 4.37725 13.0469 3.66683 10.9997 3.66683C8.95245 3.66683 7.21842 4.37725 5.79759 5.79808C4.37676 7.21891 3.66634 8.95294 3.66634 11.0002C3.66634 13.0474 4.37676 14.7814 5.79759 16.2022C7.21842 17.6231 8.95245 18.3335 10.9997 18.3335Z" fill="white"/>
</g>
</svg>
