<svg width="44" height="45" viewBox="0 0 44 45" fill="none" xmlns="http://www.w3.org/2000/svg">
<rect y="0.842285" width="44" height="44" rx="22" fill="#4F9AD1"/>
<mask id="mask0_653_12383" style="mask-type:alpha" maskUnits="userSpaceOnUse" x="12" y="12" width="20" height="21">
<rect x="12" y="12.8423" width="20" height="20" fill="#D9D9D9"/>
</mask>
<g mask="url(#mask0_653_12383)">
<path d="M16.1667 30.3423C15.7083 30.3423 15.316 30.1791 14.9896 29.8527C14.6632 29.5263 14.5 29.134 14.5 28.6756V17.009C14.5 16.5506 14.6632 16.1583 14.9896 15.8319C15.316 15.5055 15.7083 15.3423 16.1667 15.3423H23.6667V17.009H16.1667V28.6756H27.8333V21.1756H29.5V28.6756C29.5 29.134 29.3368 29.5263 29.0104 29.8527C28.684 30.1791 28.2917 30.3423 27.8333 30.3423H16.1667ZM26.1667 20.3423V18.6756H24.5V17.009H26.1667V15.3423H27.8333V17.009H29.5V18.6756H27.8333V20.3423H26.1667ZM17 27.009H27L23.875 22.8423L21.375 26.1756L19.5 23.6756L17 27.009Z" fill="white"/>
</g>
</svg>
