<svg width="16" height="15" viewBox="0 0 16 15" fill="none" xmlns="http://www.w3.org/2000/svg">
<path d="M4.5 14.75C4.0875 14.75 3.73438 14.6033 3.44062 14.31C3.14687 14.0168 3 13.6643 3 13.2525V11.7548H1.5C1.0875 11.7548 0.734375 11.6082 0.440625 11.315C0.146875 11.0217 0 10.6667 0 10.25V6.75C0 6.19444 0.194444 5.72222 0.583333 5.33333C0.972222 4.94444 1.44444 4.75 2 4.75H14C14.5556 4.75 15.0278 4.94444 15.4167 5.33333C15.8056 5.72222 16 6.19444 16 6.75V10.25C16 10.6625 15.8533 11.0156 15.56 11.3094C15.2668 11.6031 14.9143 11.75 14.5025 11.75H13.0048V13.25C13.0048 13.6625 12.8582 14.0156 12.565 14.3094C12.2717 14.6031 11.9167 14.75 11.5 14.75H4.5ZM1.5 10.25H3C3 9.8375 3.14687 9.48438 3.44062 9.19063C3.73438 8.89688 4.0875 8.75 4.5 8.75H11.5C11.9125 8.75 12.2656 8.89688 12.5594 9.19063C12.8531 9.48438 13 9.8375 13 10.25H14.5208V7.04854C14.5208 6.82174 14.4375 6.63194 14.2708 6.47917C14.1042 6.32639 13.9097 6.25 13.6875 6.25H2.29167C2.06736 6.25 1.87937 6.32667 1.72771 6.48C1.5759 6.63333 1.5 6.82333 1.5 7.05V10.25ZM11.5 4.75V2.25H4.5V4.75H3V2.25C3 1.83333 3.14687 1.47917 3.44062 1.1875C3.73438 0.895833 4.0875 0.75 4.5 0.75H11.5C11.9125 0.75 12.2656 0.896876 12.5594 1.19063C12.8531 1.48438 13 1.8375 13 2.25V4.75H11.5ZM12.7456 8.25C12.9569 8.25 13.1354 8.17854 13.2812 8.03562C13.4271 7.89271 13.5 7.71562 13.5 7.50437C13.5 7.29313 13.4285 7.11458 13.2856 6.96875C13.1427 6.82292 12.9656 6.75 12.7544 6.75C12.5431 6.75 12.3646 6.82146 12.2188 6.96437C12.0729 7.10729 12 7.28438 12 7.49563C12 7.70688 12.0715 7.88542 12.2144 8.03125C12.3573 8.17708 12.5344 8.25 12.7456 8.25ZM11.5 13.25V10.25H4.5V13.25H11.5Z" fill="#374151"/>
</svg>
