<svg width="22" height="22" viewBox="0 0 22 22" fill="none" xmlns="http://www.w3.org/2000/svg">
<mask id="mask0_1158_5428" style="mask-type:alpha" maskUnits="userSpaceOnUse" x="0" y="0" width="22" height="22">
<rect width="22" height="22" fill="#D9D9D9"/>
</mask>
<g mask="url(#mask0_1158_5428)">
<path d="M8.25033 16.5002H13.7503C14.01 16.5002 14.2278 16.4123 14.4035 16.2366C14.5791 16.0609 14.667 15.8432 14.667 15.5835C14.667 15.3238 14.5791 15.1061 14.4035 14.9304C14.2278 14.7547 14.01 14.6668 13.7503 14.6668H8.25033C7.9906 14.6668 7.77289 14.7547 7.5972 14.9304C7.42151 15.1061 7.33366 15.3238 7.33366 15.5835C7.33366 15.8432 7.42151 16.0609 7.5972 16.2366C7.77289 16.4123 7.9906 16.5002 8.25033 16.5002ZM8.25033 12.8335H13.7503C14.01 12.8335 14.2278 12.7456 14.4035 12.57C14.5791 12.3943 14.667 12.1766 14.667 11.9168C14.667 11.6571 14.5791 11.4394 14.4035 11.2637C14.2278 11.088 14.01 11.0002 13.7503 11.0002H8.25033C7.9906 11.0002 7.77289 11.088 7.5972 11.2637C7.42151 11.4394 7.33366 11.6571 7.33366 11.9168C7.33366 12.1766 7.42151 12.3943 7.5972 12.57C7.77289 12.7456 7.9906 12.8335 8.25033 12.8335ZM5.50033 20.1668C4.99616 20.1668 4.56456 19.9873 4.20553 19.6283C3.84651 19.2693 3.66699 18.8377 3.66699 18.3335V3.66683C3.66699 3.16266 3.84651 2.73107 4.20553 2.37204C4.56456 2.01301 4.99616 1.8335 5.50033 1.8335H12.0774C12.3219 1.8335 12.5548 1.87933 12.7764 1.971C12.9979 2.06266 13.1927 2.19252 13.3607 2.36058L17.8066 6.80641C17.9746 6.97447 18.1045 7.16926 18.1962 7.39079C18.2878 7.61232 18.3337 7.8453 18.3337 8.08975V18.3335C18.3337 18.8377 18.1541 19.2693 17.7951 19.6283C17.4361 19.9873 17.0045 20.1668 16.5003 20.1668H5.50033ZM11.917 7.3335V3.66683H5.50033V18.3335H16.5003V8.25016H12.8337C12.5739 8.25016 12.3562 8.16232 12.1805 7.98662C12.0048 7.81093 11.917 7.59322 11.917 7.3335Z" fill="white"/>
</g>
</svg>
