<svg width="22" height="22" viewBox="0 0 22 22" fill="none" xmlns="http://www.w3.org/2000/svg">
<mask id="mask0_1158_5413" style="mask-type:alpha" maskUnits="userSpaceOnUse" x="0" y="0" width="22" height="22">
<rect width="22" height="22" fill="black"/>
</mask>
<g mask="url(#mask0_1158_5413)">
<path d="M13.7497 17.4167V16.5H11.9163C11.4122 16.5 10.9806 16.3205 10.6215 15.9615C10.2625 15.6024 10.083 15.1708 10.083 14.6667V7.33333H8.24967V8.25C8.24967 8.75417 8.07016 9.18576 7.71113 9.54479C7.3521 9.90382 6.92051 10.0833 6.41634 10.0833H3.66634C3.16217 10.0833 2.73058 9.90382 2.37155 9.54479C2.01252 9.18576 1.83301 8.75417 1.83301 8.25V4.58333C1.83301 4.07917 2.01252 3.64757 2.37155 3.28854C2.73058 2.92951 3.16217 2.75 3.66634 2.75H6.41634C6.92051 2.75 7.3521 2.92951 7.71113 3.28854C8.07016 3.64757 8.24967 4.07917 8.24967 4.58333V5.5H13.7497V4.58333C13.7497 4.07917 13.9292 3.64757 14.2882 3.28854C14.6472 2.92951 15.0788 2.75 15.583 2.75H18.333C18.8372 2.75 19.2688 2.92951 19.6278 3.28854C19.9868 3.64757 20.1663 4.07917 20.1663 4.58333V8.25C20.1663 8.75417 19.9868 9.18576 19.6278 9.54479C19.2688 9.90382 18.8372 10.0833 18.333 10.0833H15.583C15.0788 10.0833 14.6472 9.90382 14.2882 9.54479C13.9292 9.18576 13.7497 8.75417 13.7497 8.25V7.33333H11.9163V14.6667H13.7497V13.75C13.7497 13.2458 13.9292 12.8142 14.2882 12.4552C14.6472 12.0962 15.0788 11.9167 15.583 11.9167H18.333C18.8372 11.9167 19.2688 12.0962 19.6278 12.4552C19.9868 12.8142 20.1663 13.2458 20.1663 13.75V17.4167C20.1663 17.9208 19.9868 18.3524 19.6278 18.7115C19.2688 19.0705 18.8372 19.25 18.333 19.25H15.583C15.0788 19.25 14.6472 19.0705 14.2882 18.7115C13.9292 18.3524 13.7497 17.9208 13.7497 17.4167ZM15.583 8.25H18.333V4.58333H15.583V8.25ZM15.583 17.4167H18.333V13.75H15.583V17.4167ZM3.66634 8.25H6.41634V4.58333H3.66634V8.25Z" fill="black"/>
</g>
</svg>
