<svg width="16" height="20" viewBox="0 0 16 20" fill="none" xmlns="http://www.w3.org/2000/svg">
<path d="M7.01491 12.8647L5.73158 11.5814C5.63991 11.4897 5.5406 11.421 5.43366 11.3752C5.32671 11.3293 5.21595 11.3064 5.10137 11.3064C4.98678 11.3064 4.8722 11.3293 4.75762 11.3752C4.64303 11.421 4.53991 11.4897 4.44824 11.5814C4.26491 11.7647 4.17324 11.9825 4.17324 12.2345C4.17324 12.4866 4.26491 12.7043 4.44824 12.8877L6.39616 14.8585C6.48783 14.9502 6.58713 15.0151 6.69408 15.0533C6.80102 15.0915 6.9156 15.1106 7.03783 15.1106C7.16005 15.1106 7.27463 15.0915 7.38158 15.0533C7.48852 15.0151 7.58783 14.9502 7.67949 14.8585L11.5524 10.9856C11.7357 10.8022 11.8274 10.5807 11.8274 10.321C11.8274 10.0613 11.7357 9.83975 11.5524 9.65641C11.3691 9.47308 11.1475 9.38141 10.8878 9.38141C10.6281 9.38141 10.4066 9.47308 10.2232 9.65641L7.01491 12.8647ZM2.50033 19.1668C1.99616 19.1668 1.56456 18.9873 1.20553 18.6283C0.846506 18.2693 0.666992 17.8377 0.666992 17.3335V2.66683C0.666992 2.16266 0.846506 1.73107 1.20553 1.37204C1.56456 1.01301 1.99616 0.833496 2.50033 0.833496H9.07741C9.32185 0.833496 9.55484 0.879329 9.77637 0.970996C9.9979 1.06266 10.1927 1.19252 10.3607 1.36058L14.8066 5.80641C14.9746 5.97447 15.1045 6.16926 15.1962 6.39079C15.2878 6.61232 15.3337 6.8453 15.3337 7.08975V17.3335C15.3337 17.8377 15.1541 18.2693 14.7951 18.6283C14.4361 18.9873 14.0045 19.1668 13.5003 19.1668H2.50033ZM8.91699 6.3335V2.66683H2.50033V17.3335H13.5003V7.25016H9.83366C9.57394 7.25016 9.35623 7.16232 9.18053 6.98662C9.00484 6.81093 8.91699 6.59322 8.91699 6.3335Z" fill="black"/>
</svg>
