<svg width="32" height="33" viewBox="0 0 32 33" fill="none" xmlns="http://www.w3.org/2000/svg">
<g clip-path="url(#clip0_653_11852)">
<path d="M25.2317 3.28271H10.9365V9.21081H28.2848V6.33461C28.2848 4.65163 26.9151 3.28271 25.2317 3.28271Z" fill="#C7E7FF"/>
<path d="M17.1386 10.1234H0.418945V4.62282C0.418945 2.60724 2.05913 0.967773 4.07541 0.967773H9.42128C9.95263 0.967773 10.4645 1.07975 10.9295 1.29015C11.579 1.58281 12.137 2.06519 12.5283 2.69544L17.1386 10.1234Z" fill="#4F9AD1"/>
<path d="M31.5802 11.3547V29.0732C31.5802 30.7583 30.2085 32.1289 28.5226 32.1289H3.47654C1.79072 32.1289 0.418945 30.7583 0.418945 29.0732V8.29834H28.5226C30.2085 8.29834 31.5802 9.6694 31.5802 11.3547Z" fill="#4F9AD1"/>
<path d="M31.5806 11.3547V29.0732C31.5806 30.7583 30.2089 32.1289 28.523 32.1289H16V8.29834H28.523C30.2089 8.29834 31.5806 9.6694 31.5806 11.3547Z" fill="#4F9AD1"/>
<path d="M24.1965 20.2135C24.1965 24.7336 20.5193 28.411 15.9996 28.411C11.4799 28.411 7.80273 24.7336 7.80273 20.2135C7.80273 15.694 11.4799 12.0166 15.9996 12.0166C20.5193 12.0166 24.1965 15.694 24.1965 20.2135Z" fill="#C7E7FF"/>
<path d="M24.1969 20.2135C24.1969 24.7336 20.5197 28.411 16 28.411V12.0166C20.5197 12.0166 24.1969 15.694 24.1969 20.2135Z" fill="#C7E7FF"/>
<path d="M18.6427 20.3136C18.4717 20.4584 18.2623 20.529 18.0547 20.529C17.7949 20.529 17.5367 20.419 17.356 20.2045L16.9136 19.6801V23.1138C16.9136 23.6178 16.5046 24.0267 16.0006 24.0267C15.4966 24.0267 15.0877 23.6178 15.0877 23.1138V19.6801L14.6453 20.2045C14.3196 20.5899 13.744 20.6391 13.3586 20.3136C12.9735 19.9886 12.924 19.4128 13.249 19.0275L15.0561 16.8852C15.2917 16.6065 15.6355 16.4463 16.0006 16.4463C16.3658 16.4463 16.7096 16.6065 16.9452 16.8852L18.7523 19.0275C19.0773 19.4128 19.0278 19.9886 18.6427 20.3136Z" fill="#4F9AD1"/>
<path d="M18.642 20.3136C18.4711 20.4584 18.2616 20.529 18.0541 20.529C17.7942 20.529 17.536 20.419 17.3554 20.2045L16.9129 19.6801V23.1138C16.9129 23.6178 16.504 24.0267 16 24.0267V16.4463C16.3652 16.4463 16.7089 16.6065 16.9445 16.8852L18.7516 19.0275C19.0766 19.4128 19.0272 19.9886 18.642 20.3136Z" fill="#4F9AD1"/>
</g>
<defs>
<clipPath id="clip0_653_11852">
<rect width="31.1613" height="31.1613" fill="white" transform="translate(0.418945 0.967773)"/>
</clipPath>
</defs>
</svg>
