<svg width="22" height="16" viewBox="0 0 22 16" fill="none" xmlns="http://www.w3.org/2000/svg">
<path d="M0.916992 12.7665C0.916992 12.2471 1.05067 11.7696 1.31803 11.3342C1.5854 10.8988 1.9406 10.5665 2.38366 10.3373C3.33088 9.86373 4.29338 9.50852 5.27116 9.27171C6.24894 9.03491 7.24199 8.9165 8.25033 8.9165C9.25866 8.9165 10.2517 9.03491 11.2295 9.27171C12.2073 9.50852 13.1698 9.86373 14.117 10.3373C14.56 10.5665 14.9153 10.8988 15.1826 11.3342C15.45 11.7696 15.5837 12.2471 15.5837 12.7665V13.4998C15.5837 14.004 15.4041 14.4356 15.0451 14.7946C14.6861 15.1537 14.2545 15.3332 13.7503 15.3332H2.75033C2.24616 15.3332 1.81456 15.1537 1.45553 14.7946C1.09651 14.4356 0.916992 14.004 0.916992 13.4998V12.7665ZM19.2503 15.3332H16.9128C17.0809 15.0582 17.2069 14.7641 17.291 14.4509C17.375 14.1377 17.417 13.8207 17.417 13.4998V12.5832C17.417 11.9109 17.2298 11.2655 16.8555 10.6467C16.4812 10.028 15.9503 9.49706 15.2628 9.054C16.042 9.14567 16.7753 9.30227 17.4628 9.5238C18.1503 9.74532 18.792 10.0165 19.3878 10.3373C19.9378 10.6429 20.358 10.9828 20.6482 11.3571C20.9385 11.7314 21.0837 12.1401 21.0837 12.5832V13.4998C21.0837 14.004 20.9041 14.4356 20.5451 14.7946C20.1861 15.1537 19.7545 15.3332 19.2503 15.3332ZM8.25033 7.99984C7.24199 7.99984 6.3788 7.64081 5.66074 6.92275C4.94269 6.2047 4.58366 5.3415 4.58366 4.33317C4.58366 3.32484 4.94269 2.46164 5.66074 1.74359C6.3788 1.02553 7.24199 0.666504 8.25033 0.666504C9.25866 0.666504 10.1219 1.02553 10.8399 1.74359C11.558 2.46164 11.917 3.32484 11.917 4.33317C11.917 5.3415 11.558 6.2047 10.8399 6.92275C10.1219 7.64081 9.25866 7.99984 8.25033 7.99984ZM17.417 4.33317C17.417 5.3415 17.058 6.2047 16.3399 6.92275C15.6219 7.64081 14.7587 7.99984 13.7503 7.99984C13.5823 7.99984 13.3684 7.98074 13.1087 7.94255C12.8489 7.90435 12.635 7.86234 12.467 7.8165C12.8795 7.32762 13.1965 6.78525 13.418 6.18942C13.6396 5.59359 13.7503 4.97484 13.7503 4.33317C13.7503 3.6915 13.6396 3.07275 13.418 2.47692C13.1965 1.88109 12.8795 1.33873 12.467 0.849837C12.6809 0.773448 12.8948 0.723796 13.1087 0.700879C13.3225 0.677962 13.5364 0.666504 13.7503 0.666504C14.7587 0.666504 15.6219 1.02553 16.3399 1.74359C17.058 2.46164 17.417 3.32484 17.417 4.33317ZM2.75033 13.4998H13.7503V12.7665C13.7503 12.5984 13.7083 12.4457 13.6243 12.3082C13.5403 12.1707 13.4295 12.0637 13.292 11.9873C12.467 11.5748 11.6344 11.2655 10.7941 11.0592C9.9538 10.853 9.10588 10.7498 8.25033 10.7498C7.39477 10.7498 6.54685 10.853 5.70658 11.0592C4.8663 11.2655 4.03366 11.5748 3.20866 11.9873C3.07116 12.0637 2.9604 12.1707 2.87637 12.3082C2.79234 12.4457 2.75033 12.5984 2.75033 12.7665V13.4998ZM8.25033 6.1665C8.75449 6.1665 9.18609 5.98699 9.54512 5.62796C9.90415 5.26893 10.0837 4.83734 10.0837 4.33317C10.0837 3.829 9.90415 3.39741 9.54512 3.03838C9.18609 2.67935 8.75449 2.49984 8.25033 2.49984C7.74616 2.49984 7.31456 2.67935 6.95553 3.03838C6.59651 3.39741 6.41699 3.829 6.41699 4.33317C6.41699 4.83734 6.59651 5.26893 6.95553 5.62796C7.31456 5.98699 7.74616 6.1665 8.25033 6.1665Z" fill="black"/>
</svg>
